# xmcd
#
# Track frame offsets:
#	150
#	8048
#	17976
#	27990
#	38627
#	49113
#	58886
#	67452
#	78277
#	86873
#	97818
#	108016
#	117074
#	126065
#	134410
#	145621
#	155682
#	166513
#	175314
#	185389
#
# Disc length: 2590 seconds
#
# Revision: 0
# Processed by: cddbd v1.5.2PL0 Copyright (c) Steve Scherf et al.
# Submitted via: EasyCDDAExtractor 16.0.1.1
#
DISCID=040a1c14
DTITLE=J  E  Mainer - The Legendary J  E  Mainer - Volume 05
DYEAR=1900
DGENRE=Western
TTITLE0=Man In The Woodpile
TTITLE1=I Tickled Nancy
TTITLE2=Give Me Back My Five Dollars
TTITLE3=Quit Kicking My Dog Around
TTITLE4=Rise When The Rooster Crows
TTITLE5=Alimony
TTITLE6=I'm A Child To Fight
TTITLE7=My Gal Rides In A Wheel Barrow
TTITLE8=Great Big House
TTITLE9=Down In Rockingham
TTITLE10=Old Molly Hare
TTITLE11=My Daughter Wants To Marry
TTITLE12=Farm Relief
TTITLE13=Sugar Babe
TTITLE14=I Got Mine
TTITLE15=When A Man Falls In Love
TTITLE16=I Don't Reckon It Will Happen Again
TTITLE17=Jordan Am A Hard Road To Travel
TTITLE18=Tell Me How Long
TTITLE19=Hard Times On The Farm
EXTD=
EXTT0=
EXTT1=
EXTT2=
EXTT3=
EXTT4=
EXTT5=
EXTT6=
EXTT7=
EXTT8=
EXTT9=
EXTT10=
EXTT11=
EXTT12=
EXTT13=
EXTT14=
EXTT15=
EXTT16=
EXTT17=
EXTT18=
EXTT19=
PLAYORDER=
